# xmcd
#
# Track frame offsets: 
#        150
#        990
#        11402
#        22157
#        34445
#        44191
#        54298
#        63807
#        73998
#        83841
#        93991
#        105923
#        119166
#        130506
#        139423
#        149900
#        160941
#        169070
#        177304
#        187244
#        196634
#        206833
#        219295
#        229960
#        241830
#        254097
#        263612
#        274587
#
# Disc length: 3675 seconds
#
# Revision: 4
# Processed by: cddbd v1.5.2PL0 Copyright (c) Steve Scherf et al.
# Submitted via: ExactAudioCopy v1.0b3
#
DISCID=a00e591c
DTITLE=Pee Wee King - Pee Wee King's Country Hoedown [disc 1]
DYEAR=1999
DGENRE=Western Swing
TTITLE0="This is Pee Wee King..."
TTITLE1=I Love the Way You Roll Them Eyes at Me
TTITLE2=The Reason I'm in Love with You
TTITLE3=Ramblin' Blues
TTITLE4=I'm Goin' Back to the Middle of the Middle West
TTITLE5=One Way Street
TTITLE6=I'll Never Love No One but You
TTITLE7=You Tried to Ruin My Name
TTITLE8=Get Together Polka
TTITLE9=Rootin' Tootin' Santa Claus
TTITLE10=There's a Moon in the Sky
TTITLE11=Slowpoke
TTITLE12=Empty Vows
TTITLE13=Oh Monah
TTITLE14=Blow Out All the Candles
TTITLE15=Between You and the Birds and the Bees and Cupid
TTITLE16=Western Limited
TTITLE17=Brother Drop Dead Boogie
TTITLE18=Doghouse Blues
TTITLE19=Cowboy Special
TTITLE20=Steel Guitar Waltz
TTITLE21='Tain't What You Want
TTITLE22=Hog Wild Too
TTITLE23=I Don't Know Why I Should Love You
TTITLE24=Postage Due
TTITLE25=Subdued Mood
TTITLE26=If and When
TTITLE27="We've just about reached the half-way point..."
EXTD=Recorded for/by Standard Radio Transcription Services, 1952.\nPee
EXTD=Wee King [Julius Frank Anthony Kuczynski] (1914-02-18/2000-03-07
EXTD=): accordion, bandleader\n& The Golden West Cowboys\nHenry Ellis 
EXTD="Redd" Stewart (1923-05-27/2003-08-03): vocals\n2CD: Soundies/Blo
EXTD=odshot Revival BS-804 (1999-11), UPC 744302080420.
EXTT0=
EXTT1=
EXTT2=
EXTT3=
EXTT4=
EXTT5=
EXTT6=
EXTT7=
EXTT8=
EXTT9=
EXTT10=
EXTT11=
EXTT12=
EXTT13=
EXTT14=
EXTT15=
EXTT16=
EXTT17=
EXTT18=
EXTT19=
EXTT20=
EXTT21=
EXTT22=
EXTT23=
EXTT24=
EXTT25=
EXTT26=
EXTT27=
PLAYORDER=
